HIERARCHY
ROOT Hips
{
 OFFSET 0.000000 0.000000 0.000000
 CHANNELS 6 Xposition Yposition Zposition Yrotation Xrotation Zrotation
 JOINT Chest
 {
  OFFSET 0.000000 10.354800 0.006500
  CHANNELS 3 Yrotation Xrotation Zrotation
  JOINT Chest2
  {
   OFFSET 0.000000 10.435800 -0.013200
   CHANNELS 3 Yrotation Xrotation Zrotation
   JOINT Chest3
   {
    OFFSET 0.000000 10.393700 0.000000
    CHANNELS 3 Yrotation Xrotation Zrotation
    JOINT Chest4
    {
     OFFSET 0.000000 10.383100 0.000000
     CHANNELS 3 Yrotation Xrotation Zrotation
     JOINT Neck
     {
      OFFSET 0.000000 15.694000 0.000000
      CHANNELS 3 Yrotation Xrotation Zrotation
      JOINT Head
      {
       OFFSET 0.000000 9.711000 -0.028000
       CHANNELS 3 Yrotation Xrotation Zrotation
       End Site
       {
        OFFSET 0.000000 18.578700 -0.014800
       }
      }
     }
     JOINT RightCollar
     {
      OFFSET -3.157200 10.367500 0.000000
      CHANNELS 3 Yrotation Xrotation Zrotation
      JOINT RightShoulder
      {
       OFFSET -14.482500 0.000000 0.000000
       CHANNELS 3 Yrotation Xrotation Zrotation
       JOINT RightElbow
       {
        OFFSET 0.000000 -31.707800 0.000000
        CHANNELS 3 Yrotation Xrotation Zrotation
        JOINT RightWrist
        {
         OFFSET 0.000000 -25.659300 0.000000
         CHANNELS 3 Yrotation Xrotation Zrotation
         End Site
         {
          OFFSET 0.000000 -18.994300 0.000000
         }
        }
       }
      }
     }
     JOINT LeftCollar
     {
      OFFSET 3.157200 10.367500 0.000000
      CHANNELS 3 Yrotation Xrotation Zrotation
      JOINT LeftShoulder
      {
       OFFSET 14.482500 0.000000 0.000000
       CHANNELS 3 Yrotation Xrotation Zrotation
       JOINT LeftElbow
       {
        OFFSET 0.000000 -31.707800 0.000000
        CHANNELS 3 Yrotation Xrotation Zrotation
        JOINT LeftWrist
        {
         OFFSET 0.000000 -25.659300 0.000000
         CHANNELS 3 Yrotation Xrotation Zrotation
         End Site
         {
          OFFSET 0.000000 -18.994300 0.000000
         }
        }
       }
      }
     }
    }
   }
  }
 }
 JOINT RightHip
 {
  OFFSET -8.365600 -0.032100 -0.003200
  CHANNELS 3 Yrotation Xrotation Zrotation
  JOINT RightKnee
  {
   OFFSET 0.000000 -43.980000 0.003100
   CHANNELS 3 Yrotation Xrotation Zrotation
   JOINT RightAnkle
   {
    OFFSET 0.000000 -42.882800 0.005200
    CHANNELS 3 Yrotation Xrotation Zrotation
    JOINT RightToe
    {
     OFFSET 0.000000 -4.915500 10.826300
     CHANNELS 3 Yrotation Xrotation Zrotation
     End Site
     {
      OFFSET 0.000000 -1.517500 6.175900
     }
    }
   }
  }
 }
 JOINT LeftHip
 {
  OFFSET 8.365600 -0.032100 -0.003200
  CHANNELS 3 Yrotation Xrotation Zrotation
  JOINT LeftKnee
  {
   OFFSET 0.000000 -43.980000 0.003100
   CHANNELS 3 Yrotation Xrotation Zrotation
   JOINT LeftAnkle
   {
    OFFSET 0.000000 -42.882800 0.005200
    CHANNELS 3 Yrotation Xrotation Zrotation
    JOINT LeftToe
    {
     OFFSET 0.000000 -4.915500 10.826300
     CHANNELS 3 Yrotation Xrotation Zrotation
     End Site
     {
      OFFSET 0.000000 -1.517500 6.175900
     }
    }
   }
  }
 }
}
MOTION
Frames: 8
Frame Time: 0.008333
-8.958649 127.031396 23.771864 171.848473 -29.713216 -3.592355 -0.643940 14.776860 2.330921 -0.085296 1.354915 0.222313 -0.135400 2.260093 0.362833 -0.603319 13.209012 2.089456 5.019417 21.098781 -5.976362 6.906698 -2.800816 -7.742240 3.975811 5.683782 -4.680966 -2.736958 -18.369865 -7.221618 -139.905790 -53.602189 163.644158 -14.484208 -26.902595 -43.331717 -1.455732 8.716309 0.757982 13.363437 -11.749486 -8.821421 155.782760 -47.037294 -178.060593 19.019324 -22.271807 41.209805 7.079618 -52.137923 -3.014246 -91.413713 77.903001 -86.286065 4.610166 5.842475 -15.343491 -0.002283 -0.001433 -0.001037 -20.319524 -52.789703 2.150504 112.957733 85.974958 105.953733 -3.619212 -25.177199 -1.185155 -0.001685 -0.000842 -0.000765
-8.957585 127.031216 23.771776 171.842449 -29.707198 -3.586340 -0.642822 14.778523 2.331003 -0.083301 1.356046 0.223166 -0.137338 2.268839 0.366616 -0.603702 13.199733 2.082571 5.013689 21.097963 -5.970000 6.897012 -2.803429 -7.736064 3.962335 5.708124 -4.668717 -2.736297 -18.364603 -7.237025 -139.872907 -53.611183 163.621210 -14.487256 -26.897737 -43.372233 -1.457054 8.722779 0.754750 13.370585 -11.729417 -8.826963 155.702780 -47.047913 -178.031451 19.056669 -22.256859 41.202459 7.073837 -52.145477 -3.008396 -91.417680 77.900162 -86.289989 4.614359 5.839999 -15.353576 -0.000711 -0.000716 -0.000323 -20.319293 -52.795706 2.154766 113.007142 85.977886 106.001464 -3.618769 -25.188843 -1.185655 -0.001798 -0.000725 -0.000816
-8.956688 127.030968 23.771860 171.841269 -29.699219 -3.582137 -0.642237 14.780003 2.332427 -0.085128 1.353239 0.222356 -0.138149 2.271107 0.368491 -0.601307 13.201205 2.081959 5.007279 21.091698 -5.970942 6.888941 -2.801977 -7.724168 3.958554 5.702290 -4.672250 -2.740558 -18.295657 -7.239961 -139.909830 -53.587574 163.662076 -14.474647 -26.890284 -43.410664 -1.460430 8.716711 0.749719 13.378470 -11.653145 -8.819409 155.628674 -47.014198 -178.019646 19.087663 -22.247910 41.222656 7.053974 -52.156318 -2.999445 -91.428874 77.896557 -86.301445 4.608240 5.839911 -15.369434 0.000566 -0.001061 0.000257 -20.318125 -52.802667 2.155863 113.008440 85.980960 106.005036 -3.624063 -25.199273 -1.186612 -0.001958 -0.000196 -0.000889
-8.955398 127.030549 23.772429 171.839088 -29.688524 -3.580328 -0.643339 14.778166 2.336891 -0.083460 1.346516 0.218122 -0.140412 2.278465 0.373908 -0.606052 13.210924 2.087357 5.005517 21.077406 -5.981825 6.885784 -2.800147 -7.714789 3.956419 5.700500 -4.683139 -2.738711 -18.274996 -7.245284 -139.933631 -53.568762 163.690357 -14.447782 -26.858353 -43.461726 -1.460836 8.710149 0.735534 13.396199 -11.627192 -8.816556 155.549679 -47.019803 -177.988749 19.108629 -22.243482 41.260917 7.045712 -52.169210 -2.997376 -91.436895 77.896806 -86.307989 4.638567 5.838586 -15.379915 0.003822 -0.002345 0.001735 -20.321411 -52.811216 2.162475 112.987680 85.983582 105.984091 -3.608880 -25.215111 -1.190904 -0.001223 -0.001127 -0.000555
-8.955398 127.030504 23.772039 171.835004 -29.682485 -3.570259 -0.648604 14.789390 2.340280 -0.079666 1.338008 0.212429 -0.139484 2.274723 0.369886 -0.607010 13.211873 2.087211 5.003078 21.084852 -5.970011 6.886022 -2.806148 -7.720131 3.947902 5.707366 -4.682619 -2.737674 -18.251316 -7.252038 -139.934301 -53.587369 163.681445 -14.425529 -26.858864 -43.472380 -1.454936 8.719374 0.731825 13.402828 -11.606169 -8.812452 155.508260 -47.005448 -177.977067 19.130016 -22.221588 41.315890 7.048999 -52.177225 -3.005848 -91.443619 77.897363 -86.316919 4.636308 5.840515 -15.382937 0.002360 -0.001476 0.001072 -20.310058 -52.816792 2.160039 112.940662 85.981679 105.934329 -3.618418 -25.214626 -1.188145 0.000648 -0.000587 0.000294
-8.955627 127.030420 23.771620 171.836547 -29.675830 -3.562282 -0.656791 14.788585 2.333651 -0.078673 1.342437 0.215589 -0.138312 2.270075 0.366718 -0.608445 13.213152 2.087481 5.003024 21.083537 -5.969793 6.887497 -2.803976 -7.714812 3.926177 5.732052 -4.675689 -2.726339 -18.248873 -7.266961 -139.943939 -53.602485 163.675610 -14.406091 -26.851586 -43.471056 -1.454612 8.737026 0.730130 13.410032 -11.595133 -8.811799 155.474707 -46.991148 -177.964733 19.126232 -22.221682 41.343699 7.054399 -52.184339 -3.018240 -91.447919 77.895311 -86.318833 4.607024 5.841440 -15.380100 -0.000064 0.000633 -0.000029 -20.308582 -52.824094 2.158555 112.878105 85.988968 105.865972 -3.616492 -25.208014 -1.185503 0.001096 -0.000522 0.000498
-8.953685 127.030385 23.771623 171.829948 -29.668661 -3.563050 -0.652150 14.782864 2.338379 -0.091688 1.355441 0.223592 -0.142296 2.274563 0.369764 -0.605458 13.204526 2.085112 5.003801 21.094011 -5.960109 6.894697 -2.812074 -7.733585 3.926261 5.744459 -4.682947 -2.732735 -18.236741 -7.276419 -139.959720 -53.616908 163.675726 -14.395259 -26.844431 -43.462446 -1.444629 8.730179 0.717727 13.409783 -11.574366 -8.804811 155.409823 -47.056228 -177.921781 19.104611 -22.289041 41.347993 7.051663 -52.192975 -3.011705 -91.427623 77.892804 -86.291004 4.589958 5.844036 -15.380176 0.000504 0.000287 0.000229 -20.321558 -52.827543 2.178750 112.845071 85.988684 105.826405 -3.608641 -25.205103 -1.186682 0.001393 0.000229 0.000632
-8.952910 127.030200 23.771351 171.822924 -29.660674 -3.557352 -0.657076 14.781888 2.338582 -0.093291 1.362902 0.226458 -0.135996 2.266223 0.365454 -0.622880 13.230290 2.102035 5.013484 21.071386 -5.984304 6.896569 -2.812837 -7.735608 3.938150 5.734118 -4.705715 -2.735304 -18.239192 -7.282673 -139.968577 -53.647574 163.660664 -14.409816 -26.859734 -43.432878 -1.432407 8.717091 0.699409 13.402159 -11.559747 -8.801990 155.414140 -47.046172 -177.916501 19.091996 -22.267988 41.411284 7.050015 -52.205496 -3.014158 -91.424206 77.898146 -86.287263 4.582226 5.848598 -15.384466 -0.000538 -0.000688 -0.000244 -20.319901 -52.835753 2.183119 112.825300 85.987035 105.806783 -3.609918 -25.195849 -1.191333 0.002129 0.000621 0.000967
